# xmcd CD database file generated by OrangeCD 5.2
#
# Track frame offsets:
#	150
#	3142
#	31340
#	51174
#	64355
#	86175
#	101202
#	122176
#	144830
#	168748
#	186073
#	220017
#	250634
#	259207
#	279854
#
# Disc length: 4248 seconds
#
# Revision: 0
# Processed by: cddbd v1.5.1PL0 Copyright (c) Steve Scherf et al.
# Submitted via: OrangeCD 5.2
#
DISCID=d310960f
DTITLE=Susan Tedeschi - Live at Mann Music Center
DYEAR=1900
DGENRE=
TTITLE0=intro
TTITLE1=Feeling Music Brings
TTITLE2=Alone
TTITLE3=Tired Of My Tears
TTITLE4=Share Some Of Your Love With Me
TTITLE5=Evidence
TTITLE6=Don't Think Twice...
TTITLE7=Voodoo Woman
TTITLE8=Wait For Me
TTITLE9=True
TTITLE10=Lost Love
TTITLE11=Hurt So Bad
TTITLE12=(encore)
TTITLE13=I Fell In Love
TTITLE14=Angel From Montgomery>Sugaree>Angel From Montgomery
EXTD=
EXTT0=
EXTT1=
EXTT2=
EXTT3=
EXTT4=
EXTT5=
EXTT6=
EXTT7=
EXTT8=
EXTT9=
EXTT10=
EXTT11=
EXTT12=
EXTT13=
EXTT14=
PLAYORDER=
